<?xml version="1.0" encoding="utf-8"?>
<!-- Generator: Adobe Illustrator 13.0.0, SVG Export Plug-In . SVG Version: 6.00 Build 14948)  -->
<!DOCTYPE svg PUBLIC "-//W3C//DTD SVG 1.1//EN" "http://www.w3.org/Graphics/SVG/1.1/DTD/svg11.dtd">
<svg version="1.1" id="Layer_1" xmlns="http://www.w3.org/2000/svg" xmlns:xlink="http://www.w3.org/1999/xlink" x="0px" y="0px"
	 width="300px" height="300px" viewBox="0 0 300 300" enable-background="new 0 0 300 300" xml:space="preserve">
<g>
	<circle fill="#F16632" cx="200.143" cy="141.885" r="96.8"/>
	<g>
		<path fill="#464646" d="M178.496,85.042h54.905l16.952,44.772c0,0,25.978,3.316,34.271,26.532l-16.214,39.061
			c0,0-27.638-54.905-65.225-2.58H153.07L178.496,85.042z"/>
		<circle fill="#464646" cx="236.169" cy="201.483" r="25.057"/>
		<polygon fill="#464646" points="6.777,192.829 32.847,173.837 146.62,173.837 146.62,192.799 		"/>
		<polygon fill="#464646" points="63.585,138.29 81.058,125.563 157.307,125.563 157.307,138.271 		"/>
		<polygon fill="#464646" points="107.691,93.333 119.345,85.394 170.206,85.394 170.206,93.319 		"/>
		<polygon fill="#FFFFFF" points="184.476,92.227 229.932,92.227 239.908,125.76 176.897,125.76 		"/>
		<circle fill="#FFFFFF" cx="236.902" cy="201.854" r="11.055"/>
	</g>
</g>
</svg>
