<?xml version="1.0" encoding="utf-8"?>
<!-- Generator: Adobe Illustrator 13.0.0, SVG Export Plug-In . SVG Version: 6.00 Build 14948)  -->
<!DOCTYPE svg PUBLIC "-//W3C//DTD SVG 1.1//EN" "http://www.w3.org/Graphics/SVG/1.1/DTD/svg11.dtd">
<svg version="1.1" id="Layer_1" xmlns="http://www.w3.org/2000/svg" xmlns:xlink="http://www.w3.org/1999/xlink" x="0px" y="0px"
	 width="300px" height="300px" viewBox="0 0 300 300" enable-background="new 0 0 300 300" xml:space="preserve">
<g>
	<circle fill="#F16632" cx="150.695" cy="149.516" r="146.848"/>
	<g>
		<path fill="#464646" d="M185.328,103.148h58.885l18.179,48.016c0,0,27.858,3.558,36.752,28.455l-17.388,41.889
			c0,0-29.641-58.881-69.949-2.767h-53.745L185.328,103.148z"/>
		<path fill="#464646" d="M274.051,228.025c0,14.842-12.031,26.871-26.872,26.871c-14.843,0-26.871-12.029-26.871-26.871
			c0-14.845,12.028-26.874,26.871-26.874C262.02,201.151,274.051,213.181,274.051,228.025z"/>
		<polygon fill="#464646" points="1.17,218.743 29.129,198.377 151.145,198.377 151.145,218.71 		"/>
		<polygon fill="#464646" points="62.094,160.253 80.832,146.604 162.604,146.604 162.604,160.233 		"/>
		<polygon fill="#464646" points="109.395,112.041 121.894,103.526 176.437,103.526 176.437,112.026 		"/>
		<polygon fill="#FFFFFF" points="191.74,110.854 240.49,110.854 251.19,146.816 183.614,146.816 		"/>
		<circle fill="#FFFFFF" cx="247.965" cy="228.421" r="11.856"/>
	</g>
</g>
</svg>
