<?xml version="1.0" encoding="utf-8"?>
<!-- Generator: Adobe Illustrator 13.0.0, SVG Export Plug-In . SVG Version: 6.00 Build 14948)  -->
<!DOCTYPE svg PUBLIC "-//W3C//DTD SVG 1.1//EN" "http://www.w3.org/Graphics/SVG/1.1/DTD/svg11.dtd">
<svg version="1.1" id="Layer_1" xmlns="http://www.w3.org/2000/svg" xmlns:xlink="http://www.w3.org/1999/xlink" x="0px" y="0px"
	 width="300px" height="300px" viewBox="0 0 300 300" enable-background="new 0 0 300 300" xml:space="preserve">
<g>
	<circle fill="#F16632" cx="200.431" cy="141.516" r="95.442"/>
	<g>
		
			<rect x="58.704" y="108.799" transform="matrix(0.9266 -0.376 0.376 0.9266 -50.4502 72.6793)" fill="#464646" width="204.542" height="113.583"/>
		
			<rect x="71.416" y="115.843" transform="matrix(0.9266 -0.376 0.376 0.9266 -50.1659 72.2878)" fill="#FFFFFF" width="177.391" height="97.642"/>
		<circle fill="#464646" cx="64.058" cy="160.232" r="13.576"/>
		<circle fill="#464646" cx="95.74" cy="236.503" r="13.802"/>
		<circle fill="#464646" cx="227.219" cy="94.756" r="14.255"/>
		
			<ellipse transform="matrix(0.9266 -0.376 0.376 0.9266 -45.0638 108.5981)" fill="#464646" cx="255.659" cy="169.737" rx="13.349" ry="13.697"/>
		<circle fill="#464646" cx="160.72" cy="164.96" r="31.224"/>
	</g>
	<g>
		<rect x="79.528" y="144.198" fill="#464646" width="204.542" height="113.584"/>
		<rect x="92.651" y="150.986" fill="#FFFFFF" width="177.391" height="97.643"/>
		<circle fill="#464646" cx="94.009" cy="159.584" r="13.576"/>
		<circle fill="#464646" cx="94.688" cy="242.17" r="13.802"/>
		<circle fill="#464646" cx="269.815" cy="160.263" r="14.255"/>
		<ellipse fill="#464646" cx="267.975" cy="240.435" rx="13.35" ry="13.697"/>
		<circle fill="#464646" cx="181.799" cy="200.312" r="31.225"/>
	</g>
</g>
</svg>
