<?xml version="1.0" encoding="utf-8"?>
<!-- Generator: Adobe Illustrator 13.0.0, SVG Export Plug-In . SVG Version: 6.00 Build 14948)  -->
<!DOCTYPE svg PUBLIC "-//W3C//DTD SVG 1.1//EN" "http://www.w3.org/Graphics/SVG/1.1/DTD/svg11.dtd">
<svg version="1.1" id="Layer_1" xmlns="http://www.w3.org/2000/svg" xmlns:xlink="http://www.w3.org/1999/xlink" x="0px" y="0px"
	 width="300px" height="300px" viewBox="0 0 300 300" enable-background="new 0 0 300 300" xml:space="preserve">
<g>
	<circle fill="#F16632" cx="153.204" cy="150.117" r="144.335"/>
	<g>
		
			<rect x="17.241" y="100.803" transform="matrix(0.9266 -0.376 0.376 0.9266 -51.9716 61.0722)" fill="#464646" width="226.472" height="125.761"/>
		
			<rect x="31.316" y="108.602" transform="matrix(0.9266 -0.376 0.376 0.9266 -51.656 60.6377)" fill="#FFFFFF" width="196.412" height="108.111"/>
		<circle fill="#464646" cx="23.169" cy="157.752" r="15.031"/>
		<circle fill="#464646" cx="58.248" cy="242.199" r="15.282"/>
		<path fill="#464646" d="M218.45,79.319c3.277,8.077-0.615,17.282-8.693,20.56c-8.076,3.276-17.28-0.613-20.558-8.69
			c-3.279-8.077,0.614-17.282,8.69-20.56C205.964,67.352,215.171,71.242,218.45,79.319z"/>
		
			<ellipse transform="matrix(0.9266 -0.376 0.376 0.9266 -46.0038 100.8258)" fill="#464646" cx="235.313" cy="168.274" rx="14.781" ry="15.166"/>
		<circle fill="#464646" cx="130.194" cy="162.987" r="34.572"/>
	</g>
	<g>
		<rect x="40.297" y="139.998" fill="#464646" width="226.474" height="125.762"/>
		<rect x="54.827" y="147.513" fill="#FFFFFF" width="196.412" height="108.112"/>
		<circle fill="#464646" cx="56.331" cy="157.033" r="15.031"/>
		<circle fill="#464646" cx="57.082" cy="248.474" r="15.282"/>
		<circle fill="#464646" cx="250.988" cy="157.785" r="15.783"/>
		<ellipse fill="#464646" cx="248.949" cy="246.552" rx="14.78" ry="15.166"/>
		<circle fill="#464646" cx="153.534" cy="202.127" r="34.573"/>
	</g>
</g>
</svg>
