<?xml version="1.0" encoding="utf-8"?>
<!-- Generator: Adobe Illustrator 13.0.0, SVG Export Plug-In . SVG Version: 6.00 Build 14948)  -->
<!DOCTYPE svg PUBLIC "-//W3C//DTD SVG 1.1//EN" "http://www.w3.org/Graphics/SVG/1.1/DTD/svg11.dtd">
<svg version="1.1" id="Layer_1" xmlns="http://www.w3.org/2000/svg" xmlns:xlink="http://www.w3.org/1999/xlink" x="0px" y="0px"
	 width="300px" height="300px" viewBox="0 0 300 300" enable-background="new 0 0 300 300" xml:space="preserve">
<g>
	<circle fill="#F16632" cx="200.709" cy="142.71" r="96.402"/>
	<path fill="#464646" d="M125.956,90.606c0,0,70.126,26.775-5.737,82.876c-75.864,56.101,93.077,62.477,103.277,54.189v-20.108
		c0,0-138.34,11.82-93.077-30.894C130.418,176.67,217.758,112.919,125.956,90.606z"/>
	<circle fill="#464646" cx="235.063" cy="183.375" r="17.877"/>
	<circle fill="#464646" cx="118.679" cy="58.578" r="11.568"/>
	<path fill="#464646" d="M237.003,227.889c0,0.779-0.867,1.409-1.94,1.409l0,0c-1.073,0-1.94-0.63-1.94-1.409v-24.527
		c0-0.777,0.867-1.407,1.94-1.407l0,0c1.073,0,1.94,0.63,1.94,1.407V227.889z"/>
	<path fill="#464646" d="M119.906,88.174c0,0.499-0.706,0.902-1.577,0.902l0,0c-0.872,0-1.577-0.403-1.577-0.902V72.451
		c0-0.499,0.705-0.903,1.577-0.903l0,0c0.872,0,1.577,0.404,1.577,0.903V88.174z"/>
	<text transform="matrix(1 0 0 1 228.7627 192.6104)" fill="#FFFFFF" font-family="'PoplarStd'" font-size="24.5415">A</text>
	<text transform="matrix(1 0 0 1 115.1602 65.0059)" fill="#FFFFFF" font-family="'PoplarStd'" font-size="16.8265">B</text>
</g>
</svg>
