<?xml version="1.0" encoding="utf-8"?>
<!-- Generator: Adobe Illustrator 13.0.0, SVG Export Plug-In . SVG Version: 6.00 Build 14948)  -->
<!DOCTYPE svg PUBLIC "-//W3C//DTD SVG 1.1//EN" "http://www.w3.org/Graphics/SVG/1.1/DTD/svg11.dtd">
<svg version="1.1" id="Layer_1" xmlns="http://www.w3.org/2000/svg" xmlns:xlink="http://www.w3.org/1999/xlink" x="0px" y="0px"
	 width="300px" height="300px" viewBox="0 0 300 300" enable-background="new 0 0 300 300" xml:space="preserve">
<g>
	<circle fill="#F16632" cx="152.74" cy="149.615" r="144.371"/>
	<path fill="#464646" d="M40.791,71.583c0,0,105.021,40.099-8.592,124.116c-113.614,84.017,139.391,93.563,154.666,81.151v-30.113
		c0,0-207.177,17.702-139.391-46.264C47.474,200.474,178.271,104.999,40.791,71.583z"/>
	<circle fill="#464646" cx="204.188" cy="210.514" r="26.774"/>
	<circle fill="#464646" cx="29.893" cy="23.618" r="17.325"/>
	<path fill="#464646" d="M207.095,277.179c0,1.165-1.3,2.108-2.906,2.108l0,0c-1.607,0-2.907-0.943-2.907-2.108v-36.732
		c0-1.165,1.3-2.108,2.907-2.108l0,0c1.606,0,2.906,0.943,2.906,2.108V277.179z"/>
	<path fill="#464646" d="M31.73,67.94c0,0.747-1.057,1.352-2.362,1.352l0,0c-1.306,0-2.362-0.605-2.362-1.352V44.394
		c0-0.747,1.057-1.352,2.362-1.352l0,0c1.305,0,2.362,0.605,2.362,1.352V67.94z"/>
	<text transform="matrix(1 0 0 1 194.7559 224.3447)" fill="#FFFFFF" font-family="'PoplarStd'" font-size="36.7532">A</text>
	<text transform="matrix(1 0 0 1 24.6255 33.2451)" fill="#FFFFFF" font-family="'PoplarStd'" font-size="25.1993">B</text>
</g>
</svg>
